# xmcd
#
# Track frame offsets: 
#        150
#        12333
#        27499
#        43709
#        58222
#        78613
#        102988
#        112590
#        124574
#        143816
#        160961
#        194527
#
# Disc length: 2869 seconds
#
# Revision: 0
# Processed by: cddbd v1.5.2PL0 Copyright (c) Steve Scherf et al.
# Submitted via: ExactAudioCopyFreeDBPlugin 1.0
#
DISCID=a00b330c
DTITLE=Bartender - 100% Recycled Music 
DYEAR=2013
DGENRE=Blues
TTITLE0=Popcorn
TTITLE1=Clandestino
TTITLE2=Apache
TTITLE3=O' Sarracino
TTITLE4=Ring of Fire
TTITLE5=Gross
TTITLE6=People are strange
TTITLE7=You're gonna miss me
TTITLE8=Don Raffae'
TTITLE9=Sweet Georgia Brown
TTITLE10=Streets of Philadelphia
TTITLE11=Little Green Bag
EXTD=
EXTT0=
EXTT1=
EXTT2=
EXTT3=
EXTT4=
EXTT5=
EXTT6=
EXTT7=
EXTT8=
EXTT9=
EXTT10=
EXTT11=
PLAYORDER=
